<?xml version="1.0" encoding="UTF-8"?>
<svg width="32px" height="32px" viewBox="0 0 32 32" version="1.1" xmlns="http://www.w3.org/2000/svg" xmlns:xlink="http://www.w3.org/1999/xlink">
    <title>common_icon_tabbar_my_unselect@1x</title>
    <g id="页面-1" stroke="none" stroke-width="1" fill="none" fill-rule="evenodd">
        <g id="06-我的" transform="translate(-247.000000, -732.000000)">
            <g id="底部导航-首页备份-2" transform="translate(0.000000, 721.000000)">
                <g id="我的" transform="translate(247.000000, 11.000000)">
                    <g id="icon_我的_选中态" transform="translate(2.000000, 2.000000)">
                        <circle id="椭圆形" fill="#FFCD32" cx="14" cy="14" r="14"></circle>
                        <g id="icon_我的" transform="translate(4.083333, 4.083333)" fill="#1F2129">
                            <g id="编组" transform="translate(2.065972, 2.892361)">
                                <path d="M11.5694444,9.50347222 C13.8127762,9.50347222 15.6385551,11.2912286 15.6998015,13.5197615 L15.7013889,13.6354167 L15.7013889,14.4618056 L14.0486111,14.4618056 L14.0486111,13.6354167 C14.0486111,12.297329 12.9885298,11.2068367 11.6623877,11.15796 L11.5694444,11.15625 L4.13194444,11.15625 C2.79385682,11.15625 1.70336445,12.2163313 1.65448777,13.5424734 L1.65277778,13.6354167 L1.65277778,14.4618056 L0,14.4618056 L0,13.6354167 C0,11.3920849 1.78775633,9.56630599 4.01628932,9.50505963 L4.13194444,9.50347222 L11.5694444,9.50347222 Z M11.15625,0 C11.612652,0 11.9826389,0.369986908 11.9826389,0.826388889 L11.9826389,0.826388889 L11.9826389,4.13194444 C11.9826389,6.41395435 10.1327043,8.26388889 7.85069444,8.26388889 C5.56868454,8.26388889 3.71875,6.41395435 3.71875,4.13194444 C3.71875,1.84993454 5.56868454,0 7.85069444,0 L7.85069444,0 Z M10.3298611,1.65277778 L7.85069444,1.65277778 C6.4814885,1.65277778 5.37152778,2.7627385 5.37152778,4.13194444 C5.37152778,5.50115039 6.4814885,6.61111111 7.85069444,6.61111111 C9.21990039,6.61111111 10.3298611,5.50115039 10.3298611,4.13194444 L10.3298611,4.13194444 L10.3298611,1.65277778 Z" id="形状结合"></path>
                            </g>
                        </g>
                    </g>
                </g>
            </g>
        </g>
    </g>
</svg>